# xmcd CD database file
#
# Track frame offsets:
#	182
#	44675
#	74227
#	95480
#	159160
#
# Disc length: 2535 seconds
#
# Revision: 1
# Processed by: cddbd v1.5.1PL0 Copyright (c) Steve Scherf et al.
# Submitted via: CDex 1.51
#
DISCID=4309e505
DTITLE=Zbigniew Namys³owski - Winobranie
DYEAR=1973
DGENRE=Jazz
TTITLE0=Winobranie - Jak nie ma szmalu to jest ³az
TTITLE1=Nie mniej niz 5%
TTITLE2=Gogoszary
TTITLE3=Pierwsza przymiarka - Ballada na grzêdzie - Misie
TTITLE4=Taj Mahal - Winobranie
EXTD=YEAR: 1973
EXTT0=
EXTT1=
EXTT2=
EXTT3=
EXTT4=
PLAYORDER=
